<?xml version="1.0" encoding="UTF-8" standalone="no"?>
<!-- Generator: Adobe Illustrator 19.1.0, SVG Export Plug-In . SVG Version: 6.00 Build 0)  -->

<svg
   xmlns:dc="http://purl.org/dc/elements/1.1/"
   xmlns:cc="http://creativecommons.org/ns#"
   xmlns:rdf="http://www.w3.org/1999/02/22-rdf-syntax-ns#"
   xmlns:svg="http://www.w3.org/2000/svg"
   xmlns="http://www.w3.org/2000/svg"
   xmlns:sodipodi="http://sodipodi.sourceforge.net/DTD/sodipodi-0.dtd"
   xmlns:inkscape="http://www.inkscape.org/namespaces/inkscape"
   version="1.1"
   id="Layer_1"
   x="0px"
   y="0px"
   viewBox="0 0 192 192"
   style="enable-background:new 0 0 192 192;"
   xml:space="preserve"
   sodipodi:docname="clash.svg"
   inkscape:version="0.92.0 r"><metadata
     id="metadata20"><rdf:RDF><cc:Work
         rdf:about=""><dc:format>image/svg+xml</dc:format><dc:type
           rdf:resource="http://purl.org/dc/dcmitype/StillImage" /><dc:title /></cc:Work></rdf:RDF></metadata><defs
     id="defs18" /><sodipodi:namedview
     pagecolor="#ffffff"
     bordercolor="#666666"
     borderopacity="1"
     objecttolerance="10"
     gridtolerance="10"
     guidetolerance="10"
     inkscape:pageopacity="0"
     inkscape:pageshadow="2"
     inkscape:window-width="1920"
     inkscape:window-height="1136"
     id="namedview16"
     showgrid="false"
     inkscape:zoom="4.9166667"
     inkscape:cx="48.596869"
     inkscape:cy="82.159219"
     inkscape:window-x="1280"
     inkscape:window-y="27"
     inkscape:window-maximized="1"
     inkscape:current-layer="Layer_1"><inkscape:grid
       type="xygrid"
       id="grid4530" /></sodipodi:namedview><style
     type="text/css"
     id="style2">
	.st0{fill:#AAAAAA;stroke:#767474;stroke-width:2;stroke-miterlimit:10;}
	.st1{fill:#212121;stroke:#767474;stroke-width:2;stroke-miterlimit:10;}
	.st2{fill:#FFFFFF;}
	.st3{fill:#E46E2E;}
</style><rect
     style="fill:#aaaaaa;stroke:#767474;stroke-width:2;stroke-miterlimit:10"
     id="rect4"
     height="128"
     width="176"
     class="st0"
     y="32"
     x="8" /><rect
     style="fill:#5e2750;stroke:#767474;stroke-width:2;stroke-miterlimit:10;fill-opacity:1;"
     id="rect6"
     height="112"
     width="160"
     class="st1"
     y="40"
     x="16" /><g
     aria-label="clash&gt;_"
     style="font-style:normal;font-variant:normal;font-weight:normal;font-stretch:normal;font-size:57.33333206px;line-height:25px;font-family:'Ubuntu Condensed';-inkscape-font-specification:'Ubuntu Condensed, Normal';font-variant-ligatures:normal;font-variant-caps:normal;font-variant-numeric:normal;font-feature-settings:normal;text-align:start;letter-spacing:0px;word-spacing:0px;writing-mode:lr-tb;text-anchor:start;fill:#000000;fill-opacity:1;stroke:none"
     id="text4528"><path
       d="m 32.560588,116.67755 q -3.096,0 -5.16,-1.204 -2.064,-1.204 -3.382667,-3.268 -1.261333,-2.12134 -1.834666,-4.988 -0.516,-2.86667 -0.516,-6.24934 0,-7.45333 2.694666,-11.638663 2.752,-4.242667 8.256,-4.242667 1.662667,0 2.981333,0.401334 1.318667,0.401333 2.465334,1.031999 l -1.261334,4.070667 q -1.777333,-1.146667 -3.956,-1.146667 -3.096,0 -4.586666,2.809334 -1.433334,2.809333 -1.433334,8.714663 0,2.46534 0.286667,4.58667 0.286667,2.064 0.974667,3.55467 0.745333,1.49066 1.892,2.35066 1.204,0.86 3.038666,0.86 1.261334,0 2.236,-0.28666 1.032,-0.344 1.949334,-0.86 l 1.089333,3.84133 q -0.917333,0.63067 -2.465333,1.14667 -1.490667,0.516 -3.268,0.516 z"
       style="font-style:normal;font-variant:normal;font-weight:normal;font-stretch:normal;font-size:57.33333206px;font-family:'Ubuntu Condensed';-inkscape-font-specification:'Ubuntu Condensed, Normal';font-variant-ligatures:normal;font-variant-caps:normal;font-variant-numeric:normal;font-feature-settings:normal;text-align:start;writing-mode:lr-tb;text-anchor:start;fill:#ffffff"
       id="path4489" /><path
       d="m 51.452816,116.50555 q -4.242666,-0.11467 -6.077333,-2.064 -1.834667,-2.00667 -1.834667,-6.30667 V 72.301547 l 4.930667,-0.86 v 36.808003 q 0,2.00666 0.802667,2.924 0.802666,0.86 2.809333,1.204 z"
       style="font-style:normal;font-variant:normal;font-weight:normal;font-stretch:normal;font-size:57.33333206px;font-family:'Ubuntu Condensed';-inkscape-font-specification:'Ubuntu Condensed, Normal';font-variant-ligatures:normal;font-variant-caps:normal;font-variant-numeric:normal;font-feature-settings:normal;text-align:start;writing-mode:lr-tb;text-anchor:start;fill:#ffffff"
       id="path4491" /><path
       d="m 57.999566,86.46288 q 1.490666,-0.630667 3.153333,-0.974666 1.662667,-0.401334 3.612,-0.401334 4.013333,0 6.536,2.522667 2.522666,2.465333 2.522666,7.74 v 19.952003 q -2.064,0.57333 -4.242666,0.91733 -2.121333,0.344 -4.185333,0.344 -2.064,0 -3.898667,-0.516 -1.777333,-0.516 -3.153333,-1.66267 -1.318667,-1.14666 -2.121334,-2.86666 -0.802666,-1.77734 -0.802666,-4.3 0,-2.35067 0.688,-4.07067 0.745333,-1.77733 2.006666,-2.924 1.261334,-1.204 2.981334,-1.777333 1.72,-0.630667 3.726666,-0.630667 1.892,0 4.185333,0.458667 v -2.752 q 0,-3.325334 -1.318666,-4.644 -1.261333,-1.318667 -3.669333,-1.318667 -1.318667,0 -2.522667,0.286667 -1.146667,0.229333 -2.465333,0.802666 z m 2.350666,20.69733 q 0,2.63734 1.376,3.89867 1.376,1.26133 3.898667,1.26133 1.548,0 3.382666,-0.40133 v -9.57467 q -1.719999,-0.45866 -3.382666,-0.45866 -1.089333,0 -2.064,0.28666 -0.974667,0.22934 -1.72,0.86 -0.688,0.57334 -1.089333,1.60534 -0.401334,0.97466 -0.401334,2.52266 z"
       style="font-style:normal;font-variant:normal;font-weight:normal;font-stretch:normal;font-size:57.33333206px;font-family:'Ubuntu Condensed';-inkscape-font-specification:'Ubuntu Condensed, Normal';font-variant-ligatures:normal;font-variant-caps:normal;font-variant-numeric:normal;font-feature-settings:normal;text-align:start;writing-mode:lr-tb;text-anchor:start;fill:#ffffff"
       id="path4493" /><path
       d="m 86.585607,112.43488 q 2.178667,0 3.268,-1.204 1.146667,-1.26133 1.146667,-3.268 0,-1.26133 -0.458667,-2.12133 -0.458666,-0.91734 -1.204,-1.60534 -0.745333,-0.688 -1.72,-1.204 -0.974666,-0.57333 -1.949333,-1.204 -0.974667,-0.57333 -1.892,-1.31866 -0.917333,-0.80267 -1.662667,-1.777337 -0.688,-1.032 -1.146666,-2.293333 -0.401334,-1.318667 -0.401334,-3.038667 0,-3.726666 2.293334,-6.02 2.350666,-2.293333 6.306666,-2.293333 1.662667,0 3.153334,0.458667 1.490666,0.401333 2.465333,0.917333 l -1.089334,3.956 q -1.032,-0.573333 -2.063999,-0.86 -1.032,-0.286667 -2.236,-0.286667 -1.834667,0 -2.924,1.089334 -1.089334,1.032 -1.089334,3.038666 0,1.146667 0.401334,2.006667 0.401333,0.802667 1.032,1.490667 0.688,0.630666 1.490666,1.204 0.86,0.573333 1.777334,1.089333 1.089333,0.630667 2.121333,1.376 1.089333,0.74533 1.892,1.77733 0.86,0.97467 1.376,2.35067 0.516,1.31867 0.516,3.21067 0,3.956 -2.350667,6.364 -2.293333,2.408 -6.765333,2.408 -2.293333,0 -4.128,-0.63067 -1.834667,-0.63067 -2.752,-1.14667 l 1.032,-4.07066 q 0.86,0.45866 2.293333,1.032 1.490667,0.57333 3.268,0.57333 z"
       style="font-style:normal;font-variant:normal;font-weight:normal;font-stretch:normal;font-size:57.33333206px;font-family:'Ubuntu Condensed';-inkscape-font-specification:'Ubuntu Condensed, Normal';font-variant-ligatures:normal;font-variant-caps:normal;font-variant-numeric:normal;font-feature-settings:normal;text-align:start;writing-mode:lr-tb;text-anchor:start;fill:#ffffff"
       id="path4495" /><path
       d="M 101.99663,115.93221 V 72.301547 l 4.93067,-0.86 v 14.562666 q 1.08933,-0.343999 2.35066,-0.573333 1.31867,-0.229333 2.63734,-0.229333 1.892,0 3.55466,0.630666 1.66267,0.573334 2.86667,2.006667 1.26133,1.433333 1.94933,3.898667 0.74534,2.408 0.74534,6.02 v 18.174663 h -4.93067 V 98.15888 q 0,-4.472 -1.14667,-6.536 -1.14666,-2.064 -4.3,-2.064 -1.66266,0 -3.72666,0.573333 v 25.799997 z"
       style="font-style:normal;font-variant:normal;font-weight:normal;font-stretch:normal;font-size:57.33333206px;font-family:'Ubuntu Condensed';-inkscape-font-specification:'Ubuntu Condensed, Normal';font-variant-ligatures:normal;font-variant-caps:normal;font-variant-numeric:normal;font-feature-settings:normal;text-align:start;writing-mode:lr-tb;text-anchor:start;fill:#ffffff"
       id="path4497" /><path
       d="m 129.94215,111.40288 -2.12134,-3.72667 14.62,-8.599997 -14.62,-8.6 2.12134,-3.726666 17.25733,10.549333 v 3.55467 z"
       style="font-style:normal;font-variant:normal;font-weight:normal;font-stretch:normal;font-size:57.33333206px;font-family:'Ubuntu Condensed';-inkscape-font-specification:'Ubuntu Condensed, Normal';font-variant-ligatures:normal;font-variant-caps:normal;font-variant-numeric:normal;font-feature-settings:normal;text-align:start;writing-mode:lr-tb;text-anchor:start;fill:#ffffff"
       id="path4499" /><path
       d="m 149.58956,122.18155 h 21.5 v 4.18533 h -21.5 z"
       style="font-style:normal;font-variant:normal;font-weight:normal;font-stretch:normal;font-size:57.33333206px;font-family:'Ubuntu Condensed';-inkscape-font-specification:'Ubuntu Condensed, Normal';font-variant-ligatures:normal;font-variant-caps:normal;font-variant-numeric:normal;font-feature-settings:normal;text-align:start;writing-mode:lr-tb;text-anchor:start;fill:#e46e2e;fill-opacity:1"
       id="path4501" /></g></svg>